<svg width="239" height="210" viewBox="0 0 239 210" fill="none" xmlns="http://www.w3.org/2000/svg">
<path d="M32.2243 154.041C33.3211 154.041 34.2103 153.15 34.2103 152.052C34.2103 150.953 33.3211 150.062 32.2243 150.062C31.1274 150.062 30.2383 150.953 30.2383 152.052C30.2383 153.15 31.1274 154.041 32.2243 154.041Z" fill="#CFCFCF"/>
<path d="M161.011 70.8912C144.049 70.8912 126.783 70.201 110.631 65.6949C94.7838 61.2902 80.2332 52.7448 67.2633 42.8597C58.7721 36.4253 51.051 31.2899 40.0266 32.0613C29.2415 32.6458 18.9279 36.6797 10.6013 43.5702C-3.42241 55.8707 -1.3148 78.6653 4.29871 94.6194C12.7291 118.713 38.3851 135.499 60.1907 146.359C85.3806 158.964 113.063 166.291 140.806 170.493C165.125 174.208 196.374 176.887 217.45 160.994C236.804 146.359 242.113 112.989 237.371 90.4583C236.221 83.8024 232.682 77.7966 227.421 73.5705C213.823 63.6042 193.537 70.2619 178.257 70.5867C172.583 70.7085 166.807 70.8506 161.011 70.8912Z" fill="#FFDDBE"/>
<path d="M125.687 173.012C138.323 173.012 148.567 162.752 148.567 150.096C148.567 137.44 138.323 127.18 125.687 127.18C113.051 127.18 102.808 137.44 102.808 150.096C102.808 162.752 113.051 173.012 125.687 173.012Z" fill="#FF8D28"/>
<path d="M102.046 7.03134C103.311 6.74883 104.619 6.71863 105.896 6.94249C107.173 7.16634 108.393 7.63986 109.487 8.33601C110.581 9.03215 111.527 9.93729 112.272 10.9997C113.016 12.0622 113.545 13.2612 113.827 14.5282L117.483 30.9518L98.1781 35.2633L94.5219 18.8396C94.2391 17.5693 94.2095 16.2555 94.4349 14.9737C94.6603 13.6918 95.1362 12.4672 95.8353 11.3701C96.5344 10.273 97.443 9.3249 98.5088 8.58034C99.5747 7.83578 100.777 7.30938 102.046 7.03134Z" fill="white" stroke="#FF8D28" stroke-linecap="round" stroke-linejoin="round"/>
<path d="M192.238 135.869L74.9218 162.053C74.1931 162.217 73.4343 162.188 72.7204 161.968C72.0064 161.749 71.3619 161.347 70.8505 160.802C70.339 160.257 69.9782 159.587 69.8037 158.86C69.6292 158.133 69.6471 157.373 69.8554 156.654L70.3418 154.969C74.3948 140.578 77.921 124.726 74.6786 110.111L67.7478 78.9335C61.9114 52.7289 77.5968 26.0371 103.618 19.6027C109.963 18.025 116.559 17.7345 123.018 18.7482C129.476 19.7619 135.668 22.0593 141.227 25.5053C146.786 28.9513 151.601 33.4763 155.388 38.8138C159.175 44.1514 161.858 50.1939 163.279 56.5855L170.433 88.8186C173.695 103.433 183.544 116.343 193.393 127.588L194.548 128.907C195.016 129.472 195.332 130.147 195.468 130.868C195.603 131.59 195.553 132.333 195.322 133.03C195.091 133.726 194.686 134.353 194.147 134.849C193.607 135.346 192.95 135.697 192.238 135.869Z" fill="white" stroke="#FF8D28" stroke-linecap="round" stroke-linejoin="round"/>
<path d="M105.463 115.779C105.431 111.038 107.022 106.43 109.969 102.72C112.917 99.0106 117.045 96.4245 121.665 95.3922C126.285 94.36 131.118 94.9439 135.361 97.0468C139.603 99.1497 142.998 102.645 144.981 106.95" stroke="#FF8D28" stroke-linecap="round" stroke-linejoin="round"/>
<path d="M141.656 77.5703C142.968 77.5704 144.033 78.636 144.033 79.9521C144.033 81.2685 142.969 82.3348 141.656 82.335C140.344 82.335 139.278 81.2686 139.278 79.9521C139.279 78.6359 140.344 77.5703 141.656 77.5703Z" fill="#FF8D28" stroke="#FF8D28"/>
<path d="M97.0332 87.5352C98.3453 87.5353 99.4109 88.6008 99.4111 89.917C99.4111 91.2334 98.3455 92.2997 97.0332 92.2998C95.7208 92.2998 94.6553 91.2335 94.6553 89.917C94.6555 88.6007 95.721 87.5352 97.0332 87.5352Z" fill="#FF8D28" stroke="#FF8D28"/>
<path d="M150.695 3.97839C151.792 3.97839 152.681 3.0878 152.681 1.98919C152.681 0.890592 151.792 0 150.695 0C149.598 0 148.709 0.890592 148.709 1.98919C148.709 3.0878 149.598 3.97839 150.695 3.97839Z" fill="#FF8D28"/>
<path d="M32.2243 154.041C33.3211 154.041 34.2103 153.15 34.2103 152.052C34.2103 150.953 33.3211 150.062 32.2243 150.062C31.1274 150.062 30.2383 150.953 30.2383 152.052C30.2383 153.15 31.1274 154.041 32.2243 154.041Z" fill="#FF8D28"/>
<path d="M205.575 50.0312V58.7594" stroke="#FF8D28" stroke-linecap="round" stroke-linejoin="round"/>
<path d="M201.217 54.3906H209.931" stroke="#FF8D28" stroke-linecap="round" stroke-linejoin="round"/>
<path d="M209.545 181.438V190.166" stroke="#FF8D28" stroke-linecap="round" stroke-linejoin="round"/>
<path d="M205.189 185.805H213.904" stroke="#FF8D28" stroke-linecap="round" stroke-linejoin="round"/>
<path d="M57.1904 16.9453V25.6734" stroke="#FF8D28" stroke-linecap="round" stroke-linejoin="round"/>
<path d="M52.833 21.3125H61.5471" stroke="#FF8D28" stroke-linecap="round" stroke-linejoin="round"/>
<path d="M120.318 210C161.405 210 194.712 207.918 194.712 205.351C194.712 202.784 161.405 200.703 120.318 200.703C79.2313 200.703 45.9238 202.784 45.9238 205.351C45.9238 207.918 79.2313 210 120.318 210Z" fill="#606060"/>
<path d="M191.388 45.0779C191.383 51.2509 188.932 57.1696 184.574 61.5346C180.216 65.8996 174.307 68.3542 168.144 68.3596C167.386 68.3595 166.628 68.3188 165.874 68.2378L158.984 79.5031L156.836 65.3961C153.256 63.3996 150.267 60.4907 148.171 56.9643C146.075 53.438 144.947 49.4193 144.901 45.3156C144.855 41.2119 145.893 37.169 147.91 33.5965C149.926 30.0241 152.85 27.049 156.384 24.9727C159.918 22.8965 163.938 21.7929 168.035 21.7737C172.133 21.7545 176.162 22.8205 179.716 24.8636C183.269 26.9067 186.22 29.8543 188.27 33.4077C190.32 36.9612 191.396 40.9942 191.388 45.0982V45.0779Z" fill="white" stroke="#FF8D28" stroke-linecap="round" stroke-linejoin="round"/>
<path d="M158.214 47.4318C159.512 47.4318 160.565 46.3776 160.565 45.0772C160.565 43.7768 159.512 42.7227 158.214 42.7227C156.916 42.7227 155.863 43.7768 155.863 45.0772C155.863 46.3776 156.916 47.4318 158.214 47.4318Z" fill="#FF8D28"/>
<path d="M168.143 47.4318C169.441 47.4318 170.494 46.3776 170.494 45.0772C170.494 43.7768 169.441 42.7227 168.143 42.7227C166.844 42.7227 165.792 43.7768 165.792 45.0772C165.792 46.3776 166.844 47.4318 168.143 47.4318Z" fill="#FF8D28"/>
<path d="M178.074 47.4318C179.373 47.4318 180.425 46.3776 180.425 45.0772C180.425 43.7768 179.373 42.7227 178.074 42.7227C176.776 42.7227 175.724 43.7768 175.724 45.0772C175.724 46.3776 176.776 47.4318 178.074 47.4318Z" fill="#FF8D28"/>
</svg>
