<svg width="333" height="219" viewBox="0 0 333 219" fill="none" xmlns="http://www.w3.org/2000/svg">
<g clip-path="url(#clip0_12500_8439)">
<path fill-rule="evenodd" clip-rule="evenodd" d="M197.752 42.8281L139.035 101.415C134.869 99.5132 130.328 87.5387 119.137 98.794L94.9875 122.977C85.9951 132.015 90.5827 135.849 97.6193 142.888C102.347 147.615 118.929 165.164 122.432 166.428C127.692 168.326 131.11 165.024 133.393 162.705L157.769 138.317C168.466 127.751 160.29 124.045 155.6 118.275L214.363 59.1685C223.624 61.5047 231.847 63.2451 241.787 57.0664C253.768 49.6196 259.632 36.1685 255.873 22.0621C253.968 14.9089 248.866 22.0323 247.021 23.8664C235.635 35.2025 238.309 34.4408 232.497 33.3727C230.154 32.943 227.484 32.5515 225.307 31.9983L225.01 31.3727C224.253 29.2664 225.354 32.7174 224.776 30.7174C224.644 30.2621 224.525 29.4834 224.427 28.9259C224.223 27.7515 223.985 26.4068 223.773 25.2834C222.544 18.7685 221.438 21.2962 232.62 10.3259C234.053 8.92169 241.966 2.96849 235.346 1.16424C216.37 -4.00172 197.739 8.44934 195.788 27.8962C195.065 35.0876 196.974 37.1727 197.752 42.8196V42.8281ZM212.624 53.5302C216.902 53.1983 218.641 56.4621 227.463 56.0579C241.489 55.4196 251.957 44.5685 251.558 27.0962C249.81 28.177 244.763 33.6579 243.024 35.4238C238.411 40.1217 239.827 40.0621 231.613 38.5898C229.308 38.177 226.957 37.6962 224.716 37.3089C221.098 36.6791 220.537 37.0238 219.899 33.4749C216.753 15.943 215.354 20.2281 223.887 11.9472C224.971 10.8962 229.546 6.72169 229.759 5.46637C209.623 4.00679 198.058 20.6834 201.485 36.3472C201.91 38.2834 203.539 41.7898 203.594 42.8025C203.73 45.2962 189.686 58.2834 187.225 60.7302L143.878 104.126C138.504 109.458 139.031 109.334 133.797 104.1C129.04 99.343 128.057 97.4238 123.389 102.186C120.43 105.203 117.743 107.815 114.771 110.82C92.5385 133.309 92.2451 129.803 100.77 138.437L122.33 160.041C124.295 161.994 126.102 162.326 128.317 160.22C134.274 154.568 139.673 148.696 145.553 142.93C159.809 128.96 159.894 130.266 153.623 123.956C147.054 117.343 146.433 120.066 160.626 105.781L195.35 71.0238C198.3 68.0408 211.145 55.6025 212.62 53.5174L212.624 53.5302Z" fill="#FF8D28"/>
<path fill-rule="evenodd" clip-rule="evenodd" d="M235.312 65.6073C239.092 79.9307 234.372 78.8073 247.638 78.6413L247.74 88.2626C235.767 88.1903 238.649 86.8413 236.392 96.9903C235.086 102.858 232.71 103.841 243.862 107.343L240.333 116.186C238.211 115.714 233.713 113.25 232.178 113.246C229.733 113.237 227.659 118.616 224.491 122.658C223.73 123.629 222.718 124.76 223.513 126.488C223.951 127.437 228.182 131.48 229.198 132.522C228.245 134.305 224.325 137.897 222.667 139.288C221.294 137.965 220.069 136.709 218.662 135.28C214.776 131.343 214.317 133.522 208.339 137.56C206.294 138.943 205.112 139.386 203.296 140.982C203.271 144.42 205.46 147.301 206.319 150.369L197.722 153.82C194.771 150.348 196.272 143.999 190.107 145.612C176.846 149.08 178.309 144.505 178.313 157.748H168.759C168.781 154.446 169.686 148.607 167.105 147.607C165.97 147.169 158.053 145.871 157.36 146.105C156.553 146.378 146.187 156.922 145.485 157.999C148.202 158.82 150.439 160.505 153.13 157.854C154.992 156.02 155.133 153.084 156.718 151.084L163.598 152.437C163.045 164.475 165.736 163.046 176.995 163.016C184.516 162.999 183.657 158.029 183.53 152.446L190.362 151.071C192.225 153.407 192.157 156.79 194.665 158.441C197.552 160.339 201.017 158.19 203.675 157.067C206.523 155.863 209.886 154.995 211.056 152.778C212.88 149.318 209.95 146.301 209.38 143.305L214.95 139.458C217.357 140.765 218.815 144.497 222.297 144.658C225.864 144.824 228.169 141.454 229.904 139.709C231.57 138.033 234.963 135.654 234.704 132.143C234.5 129.412 230.792 126.348 229.376 124.982L233.241 119.271C235.758 119.965 238.947 122.22 241.834 121.437C244.882 120.607 245.571 117.271 246.796 114.292C247.867 111.692 250.087 108.301 248.764 105.173C247.795 102.88 243.743 101.395 240.996 100.705C241.37 98.7775 241.553 94.5264 242.995 93.586C248.934 93.586 253.033 94.1562 253.029 87.1818C253.029 82.0456 253.871 76.1137 250.435 74.1009C248.186 72.786 245.082 73.7903 242.31 73.1903L241.081 66.552C244.572 64.4967 250.091 64.2967 248.968 58.3945C247.476 59.5903 244.878 61.369 242.799 62.3775C241.209 63.1477 236.09 65.0201 235.316 65.5945L235.312 65.6073Z" fill="#FF8D28"/>
<path fill-rule="evenodd" clip-rule="evenodd" d="M163.517 14.545L156.723 15.8854C152.552 10.7492 155.843 4.5322 143.338 9.91092C140.63 11.0769 137.029 11.962 135.966 14.1833C134.274 17.7279 137.075 20.6896 137.811 23.9322C135.753 24.8131 133.819 26.3279 132.126 27.5152C130.256 26.162 128.104 22.7194 125.196 22.3748C121.45 21.9279 119.21 25.4939 117.483 27.2173C115.953 28.745 112.267 31.2428 112.356 34.5109C112.445 37.6896 116.097 39.8811 117.564 41.8684C116.527 44.0343 114.771 45.4045 114.137 47.7365C110.953 46.996 107.972 44.4896 104.864 45.6514C102.139 46.6684 101.442 49.8556 100.115 52.996C95.3617 64.2514 98.9586 62.6684 106.097 66.562L104.698 73.2173C97.5683 74.6514 94.0394 70.5109 94.0479 82.8811C94.0564 92.9024 93.9798 93.6216 104.086 93.596C105.625 94.6131 105.532 98.6982 106.085 100.43C102.628 102.358 97.8234 102.507 97.8744 107.49C97.8914 109.124 98.4612 110.375 99.337 111.383C100.689 110.051 110.846 100.094 111.034 99.5237C111.165 99.1194 109.856 91.0769 109.469 90.0088C108.491 87.3194 102.628 88.2428 99.337 88.2769L99.371 78.6514C111.276 78.7407 108.423 80.0641 110.664 70.0386C111.841 64.762 114.631 63.0386 103.21 59.6131L106.727 50.779C109.737 51.3535 112.441 53.8386 115.732 53.6343C116.79 53.3024 121.918 45.2939 122.938 43.8896C126.034 39.6258 119.448 37.3279 117.768 33.9322L124.222 27.6599C126.952 29.4173 129.971 35.6854 133.904 32.8684L143.7 25.9918C143.976 22.6514 141.629 19.6811 140.859 16.8301L149.741 13.0088C150.532 16.0003 151.769 19.1875 153.551 21.5577C155.775 21.8428 162.633 20.1535 165.575 19.6811C170.673 18.8641 168.151 14.2045 168.925 9.23858L178.164 9.23007C178.785 13.5662 176.77 18.5577 180.787 19.5492L191.765 21.6982C193.186 14.5833 197.416 10.4896 198.624 7.75773C191.319 7.83858 193.462 11.9365 190.362 15.8854L183.568 14.5365C183.67 4.68539 183.394 3.94922 173.538 3.94922C163.674 3.94922 163.419 4.68539 163.513 14.5492L163.517 14.545Z" fill="#FF8D28"/>
<path fill-rule="evenodd" clip-rule="evenodd" d="M132.297 112.683C129.129 112.38 121.17 115.223 117.9 116.121C114.89 116.946 113.555 116.746 112.641 119.917L108.619 134.061C108.104 137.01 110.319 137.7 111.944 139.342C123.228 150.734 118.1 149.831 135.09 144.989C138.606 143.985 139.465 144.546 140.366 141.21C144.321 126.551 146.672 127.495 141.123 121.802C138.721 119.338 134.108 115.397 132.292 112.687L132.297 112.683ZM114.023 134.274C115.528 135.5 116.697 136.878 118.143 138.321C123.87 144.04 121.574 143.38 128.487 141.389C130.672 140.759 133.151 140.185 135.154 139.41C135.898 138.244 138.997 127.627 138.683 126.759C138.279 125.64 131.803 120.168 130.507 118.176C128.823 118.414 118.64 121.134 117.93 121.755C116.778 122.763 114.686 132.117 114.027 134.27L114.023 134.274Z" fill="#FF8D28"/>
<path fill-rule="evenodd" clip-rule="evenodd" d="M140.673 92.104C142.679 91.0486 143.224 89.6401 145.192 88.2061C144.861 81.5593 145.001 77.3848 147.42 71.8614C149.248 67.6784 152.595 63.4486 155.647 61.0869C164.699 54.0784 169.61 55.355 177.182 55.0827C178.917 55.0189 180.949 52.1337 182.123 51.0018L180.286 50.2146C179.64 50.0614 178.743 49.9635 178.126 49.8784C176.277 49.6274 174.546 49.5337 172.68 49.5763C169.423 49.6486 166.221 50.2103 163.385 51.121C146.391 56.5678 137.301 71.8784 140.677 92.1082L140.673 92.104Z" fill="#FF8D28"/>
<path fill-rule="evenodd" clip-rule="evenodd" d="M201.918 78.8286C202.399 89.6158 200.439 98.901 191.387 105.905C176.353 117.539 170.813 106.726 165.09 116.118C167.046 117.416 171.34 117.39 173.972 117.39C185.962 117.39 194.393 111.165 199.648 105.126C205.966 97.8712 208.547 87.4031 206.412 74.918C204.316 75.918 203.993 77.1733 201.918 78.8286Z" fill="#FF8D28"/>
</g>
<path d="M5.1416 213H1.94824V191.862H4.92188L15.8789 207.448H15.9961V191.862H19.1895V213H16.2305L5.27344 197.429H5.1416V213ZM28.5908 213.293C24.1816 213.293 21.2812 210.261 21.2812 205.295C21.2812 200.344 24.1963 197.312 28.5908 197.312C32.9854 197.312 35.9004 200.344 35.9004 205.295C35.9004 210.261 33 213.293 28.5908 213.293ZM28.5908 210.686C31.0811 210.686 32.6777 208.723 32.6777 205.295C32.6777 201.882 31.0664 199.919 28.5908 199.919C26.1152 199.919 24.5039 201.882 24.5039 205.295C24.5039 208.723 26.1152 210.686 28.5908 210.686ZM57.0908 213L55.1572 207.287H47.1006L45.167 213H41.7539L49.3857 191.862H52.9307L60.5625 213H57.0908ZM51.085 195.378L47.9355 204.65H54.3223L51.1729 195.378H51.085ZM74.5781 202.893H71.5605C71.2383 201.252 70.0078 199.948 67.9424 199.948C65.4961 199.948 63.8848 201.984 63.8848 205.295C63.8848 208.679 65.5107 210.642 67.9717 210.642C69.9199 210.642 71.1943 209.572 71.5605 207.785H74.6074C74.2705 211.066 71.6484 213.293 67.9424 213.293C63.5332 213.293 60.6621 210.275 60.6621 205.295C60.6621 200.402 63.5332 197.312 67.9131 197.312C71.8828 197.312 74.2998 199.86 74.5781 202.893ZM77.0215 193.942H80.2002V197.59H83.1299V200.095H80.2002V208.591C80.2002 209.924 80.7861 210.524 82.0752 210.524C82.3975 210.524 82.9102 210.495 83.1152 210.451V212.956C82.7637 213.044 82.0605 213.103 81.3574 213.103C78.2373 213.103 77.0215 211.916 77.0215 208.942V200.095H74.7803V197.59H77.0215V193.942ZM85.0898 213V197.59H88.2539V213H85.0898ZM86.6719 195.334C85.6611 195.334 84.8408 194.528 84.8408 193.532C84.8408 192.521 85.6611 191.716 86.6719 191.716C87.6973 191.716 88.5176 192.521 88.5176 193.532C88.5176 194.528 87.6973 195.334 86.6719 195.334ZM103.896 197.59L98.373 213H94.9746L89.4229 197.59H92.792L96.6592 209.909H96.7178L100.585 197.59H103.896ZM110.968 199.86C108.756 199.86 107.203 201.545 107.042 203.874H114.747C114.674 201.516 113.18 199.86 110.968 199.86ZM114.732 208.474H117.735C117.296 211.286 114.63 213.293 111.1 213.293C106.573 213.293 103.834 210.231 103.834 205.368C103.834 200.534 106.617 197.312 110.968 197.312C115.245 197.312 117.911 200.329 117.911 205.002V206.086H107.027V206.276C107.027 208.957 108.639 210.729 111.173 210.729C112.975 210.729 114.308 209.821 114.732 208.474ZM124.409 207.111H127.646C127.881 209.206 129.917 210.583 132.7 210.583C135.366 210.583 137.285 209.206 137.285 207.316C137.285 205.676 136.128 204.694 133.389 204.021L130.649 203.361C126.768 202.424 124.966 200.607 124.966 197.663C124.966 194.016 128.145 191.511 132.656 191.511C137.124 191.511 140.186 194.016 140.288 197.663H137.095C136.904 195.554 135.161 194.279 132.612 194.279C130.063 194.279 128.32 195.568 128.32 197.443C128.32 198.938 129.434 199.816 132.158 200.49L134.487 201.062C138.823 202.087 140.625 203.83 140.625 206.921C140.625 210.876 137.476 213.352 132.466 213.352C127.778 213.352 124.614 210.935 124.409 207.111ZM148.884 199.86C146.672 199.86 145.119 201.545 144.958 203.874H152.663C152.59 201.516 151.096 199.86 148.884 199.86ZM152.648 208.474H155.651C155.212 211.286 152.546 213.293 149.016 213.293C144.489 213.293 141.75 210.231 141.75 205.368C141.75 200.534 144.533 197.312 148.884 197.312C153.161 197.312 155.827 200.329 155.827 205.002V206.086H144.943V206.276C144.943 208.957 146.555 210.729 149.089 210.729C150.891 210.729 152.224 209.821 152.648 208.474ZM157.538 213V197.59H160.556V200.212H160.629C161.142 198.41 162.519 197.341 164.335 197.341C164.789 197.341 165.185 197.414 165.419 197.458V200.402C165.17 200.3 164.613 200.227 163.998 200.227C161.962 200.227 160.702 201.589 160.702 203.771V213H157.538ZM179.786 197.59L174.264 213H170.865L165.313 197.59H168.683L172.55 209.909H172.608L176.476 197.59H179.786ZM180.955 213V197.59H184.119V213H180.955ZM182.537 195.334C181.526 195.334 180.706 194.528 180.706 193.532C180.706 192.521 181.526 191.716 182.537 191.716C183.562 191.716 184.383 192.521 184.383 193.532C184.383 194.528 183.562 195.334 182.537 195.334ZM199.834 202.893H196.816C196.494 201.252 195.264 199.948 193.198 199.948C190.752 199.948 189.141 201.984 189.141 205.295C189.141 208.679 190.767 210.642 193.228 210.642C195.176 210.642 196.45 209.572 196.816 207.785H199.863C199.526 211.066 196.904 213.293 193.198 213.293C188.789 213.293 185.918 210.275 185.918 205.295C185.918 200.402 188.789 197.312 193.169 197.312C197.139 197.312 199.556 199.86 199.834 202.893ZM207.8 199.86C205.588 199.86 204.035 201.545 203.874 203.874H211.579C211.506 201.516 210.012 199.86 207.8 199.86ZM211.564 208.474H214.567C214.128 211.286 211.462 213.293 207.932 213.293C203.405 213.293 200.666 210.231 200.666 205.368C200.666 200.534 203.449 197.312 207.8 197.312C212.077 197.312 214.743 200.329 214.743 205.002V206.086H203.859V206.276C203.859 208.957 205.471 210.729 208.005 210.729C209.807 210.729 211.14 209.821 211.564 208.474ZM223.043 217.512H220.23L227.73 191.862H230.543L223.043 217.512ZM231.8 191.862H239.725C243.826 191.862 246.683 194.689 246.683 198.806C246.683 202.937 243.768 205.778 239.622 205.778H235.081V213H231.8V191.862ZM235.081 194.631V203.024H238.846C241.702 203.024 243.328 201.486 243.328 198.82C243.328 196.154 241.702 194.631 238.86 194.631H235.081ZM248.423 213V197.59H251.44V200.212H251.514C252.026 198.41 253.403 197.341 255.22 197.341C255.674 197.341 256.069 197.414 256.304 197.458V200.402C256.055 200.3 255.498 200.227 254.883 200.227C252.847 200.227 251.587 201.589 251.587 203.771V213H248.423ZM263.464 213.293C259.055 213.293 256.154 210.261 256.154 205.295C256.154 200.344 259.069 197.312 263.464 197.312C267.858 197.312 270.773 200.344 270.773 205.295C270.773 210.261 267.873 213.293 263.464 213.293ZM263.464 210.686C265.954 210.686 267.551 208.723 267.551 205.295C267.551 201.882 265.939 199.919 263.464 199.919C260.988 199.919 259.377 201.882 259.377 205.295C259.377 208.723 260.988 210.686 263.464 210.686ZM275.736 197.59V213.732C275.736 216.867 274.11 218.361 270.697 218.361C270.551 218.361 270.053 218.361 269.965 218.332V215.842C270.023 215.842 270.36 215.856 270.419 215.856C271.986 215.856 272.572 215.271 272.572 213.718V197.59H275.736ZM274.154 195.334C273.144 195.334 272.323 194.528 272.323 193.532C272.323 192.521 273.144 191.716 274.154 191.716C275.18 191.716 276 192.521 276 193.532C276 194.528 275.18 195.334 274.154 195.334ZM284.669 199.86C282.457 199.86 280.904 201.545 280.743 203.874H288.448C288.375 201.516 286.881 199.86 284.669 199.86ZM288.434 208.474H291.437C290.997 211.286 288.331 213.293 284.801 213.293C280.274 213.293 277.535 210.231 277.535 205.368C277.535 200.534 280.318 197.312 284.669 197.312C288.946 197.312 291.612 200.329 291.612 205.002V206.086H280.729V206.276C280.729 208.957 282.34 210.729 284.874 210.729C286.676 210.729 288.009 209.821 288.434 208.474ZM306.551 202.893H303.533C303.211 201.252 301.98 199.948 299.915 199.948C297.469 199.948 295.857 201.984 295.857 205.295C295.857 208.679 297.483 210.642 299.944 210.642C301.893 210.642 303.167 209.572 303.533 207.785H306.58C306.243 211.066 303.621 213.293 299.915 213.293C295.506 213.293 292.635 210.275 292.635 205.295C292.635 200.402 295.506 197.312 299.886 197.312C303.855 197.312 306.272 199.86 306.551 202.893ZM308.994 193.942H312.173V197.59H315.103V200.095H312.173V208.591C312.173 209.924 312.759 210.524 314.048 210.524C314.37 210.524 314.883 210.495 315.088 210.451V212.956C314.736 213.044 314.033 213.103 313.33 213.103C310.21 213.103 308.994 211.916 308.994 208.942V200.095H306.753V197.59H308.994V193.942Z" fill="#404040"/>
<defs>
<clipPath id="clip0_12500_8439">
<rect width="167" height="167" fill="white" transform="translate(90)"/>
</clipPath>
</defs>
</svg>
