<svg width="263" height="239" viewBox="0 0 263 239" fill="none" xmlns="http://www.w3.org/2000/svg">
<path d="M48.1416 233H44.9482V211.862H47.9219L58.8789 227.448H58.9961V211.862H62.1895V233H59.2305L48.2734 217.429H48.1416V233ZM71.5908 233.293C67.1816 233.293 64.2812 230.261 64.2812 225.295C64.2812 220.344 67.1963 217.312 71.5908 217.312C75.9854 217.312 78.9004 220.344 78.9004 225.295C78.9004 230.261 76 233.293 71.5908 233.293ZM71.5908 230.686C74.0811 230.686 75.6777 228.723 75.6777 225.295C75.6777 221.882 74.0664 219.919 71.5908 219.919C69.1152 219.919 67.5039 221.882 67.5039 225.295C67.5039 228.723 69.1152 230.686 71.5908 230.686ZM89.6025 214.616V222.219H94.2021C96.7363 222.219 98.1865 220.827 98.1865 218.41C98.1865 216.052 96.6484 214.616 94.1143 214.616H89.6025ZM89.6025 224.87V233H86.3213V211.862H94.5098C98.8604 211.862 101.57 214.382 101.57 218.322C101.57 221.179 100.047 223.493 97.4688 224.357L102.2 233H98.4209L94.1143 224.87H89.6025ZM110.005 219.86C107.793 219.86 106.24 221.545 106.079 223.874H113.784C113.711 221.516 112.217 219.86 110.005 219.86ZM113.77 228.474H116.772C116.333 231.286 113.667 233.293 110.137 233.293C105.61 233.293 102.871 230.231 102.871 225.368C102.871 220.534 105.654 217.312 110.005 217.312C114.282 217.312 116.948 220.329 116.948 225.002V226.086H106.064V226.276C106.064 228.957 107.676 230.729 110.21 230.729C112.012 230.729 113.345 229.821 113.77 228.474ZM131.887 222.893H128.869C128.547 221.252 127.316 219.948 125.251 219.948C122.805 219.948 121.193 221.984 121.193 225.295C121.193 228.679 122.819 230.642 125.28 230.642C127.229 230.642 128.503 229.572 128.869 227.785H131.916C131.579 231.066 128.957 233.293 125.251 233.293C120.842 233.293 117.971 230.275 117.971 225.295C117.971 220.402 120.842 217.312 125.222 217.312C129.191 217.312 131.608 219.86 131.887 222.893ZM139.853 219.86C137.641 219.86 136.088 221.545 135.927 223.874H143.632C143.559 221.516 142.064 219.86 139.853 219.86ZM143.617 228.474H146.62C146.181 231.286 143.515 233.293 139.984 233.293C135.458 233.293 132.719 230.231 132.719 225.368C132.719 220.534 135.502 217.312 139.853 217.312C144.13 217.312 146.796 220.329 146.796 225.002V226.086H135.912V226.276C135.912 228.957 137.523 230.729 140.058 230.729C141.859 230.729 143.192 229.821 143.617 228.474ZM148.507 233V217.59H151.524V220.168H151.598C152.433 218.41 154.073 217.326 156.446 217.326C159.845 217.326 161.793 219.494 161.793 223.024V233H158.614V223.64C158.614 221.325 157.53 220.051 155.333 220.051C153.106 220.051 151.671 221.633 151.671 224.021V233H148.507ZM165.027 213.942H168.206V217.59H171.136V220.095H168.206V228.591C168.206 229.924 168.792 230.524 170.081 230.524C170.403 230.524 170.916 230.495 171.121 230.451V232.956C170.77 233.044 170.066 233.103 169.363 233.103C166.243 233.103 165.027 231.916 165.027 228.942V220.095H162.786V217.59H165.027V213.942ZM177.78 227.111H181.018C181.252 229.206 183.288 230.583 186.071 230.583C188.737 230.583 190.656 229.206 190.656 227.316C190.656 225.676 189.499 224.694 186.76 224.021L184.021 223.361C180.139 222.424 178.337 220.607 178.337 217.663C178.337 214.016 181.516 211.511 186.027 211.511C190.495 211.511 193.557 214.016 193.659 217.663H190.466C190.275 215.554 188.532 214.279 185.983 214.279C183.435 214.279 181.691 215.568 181.691 217.443C181.691 218.938 182.805 219.816 185.529 220.49L187.858 221.062C192.194 222.087 193.996 223.83 193.996 226.921C193.996 230.876 190.847 233.352 185.837 233.352C181.149 233.352 177.985 230.935 177.78 227.111ZM195.927 233V211.862H199.062V220.168H199.135C199.984 218.366 201.669 217.326 204.013 217.326C207.396 217.326 209.418 219.582 209.418 223.068V233H206.239V223.684C206.239 221.413 205.097 220.051 202.87 220.051C200.526 220.051 199.091 221.662 199.091 224.094V233H195.927ZM218.351 233.293C213.941 233.293 211.041 230.261 211.041 225.295C211.041 220.344 213.956 217.312 218.351 217.312C222.745 217.312 225.66 220.344 225.66 225.295C225.66 230.261 222.76 233.293 218.351 233.293ZM218.351 230.686C220.841 230.686 222.438 228.723 222.438 225.295C222.438 221.882 220.826 219.919 218.351 219.919C215.875 219.919 214.264 221.882 214.264 225.295C214.264 228.723 215.875 230.686 218.351 230.686ZM235.384 217.341C239.295 217.341 241.873 220.417 241.873 225.295C241.873 230.173 239.31 233.264 235.442 233.264C233.23 233.264 231.473 232.18 230.594 230.466H230.521V238.098H227.356V217.59H230.418V220.241H230.477C231.385 218.469 233.157 217.341 235.384 217.341ZM234.549 230.583C237.054 230.583 238.621 228.532 238.621 225.295C238.621 222.072 237.054 220.007 234.549 220.007C232.132 220.007 230.506 222.116 230.506 225.295C230.506 228.503 232.117 230.583 234.549 230.583Z" fill="#404040"/>
<path d="M136.747 166.333C174.221 166.333 204.599 135.954 204.599 98.4808C204.599 61.0072 174.221 30.6289 136.747 30.6289C99.2738 30.6289 68.8955 61.0072 68.8955 98.4808C68.8955 135.954 99.2738 166.333 136.747 166.333Z" fill="#FFDDBE"/>
<path d="M232.485 90.5355V83.2081C232.485 81.8108 231.93 80.4707 230.942 79.4827C229.954 78.4947 228.614 77.9396 227.217 77.9396H204.575C203.883 77.9396 203.198 77.8034 202.559 77.5386C201.92 77.2738 201.339 76.8857 200.85 76.3965C200.36 75.9073 199.972 75.3265 199.707 74.6873C199.443 74.0481 199.306 73.363 199.306 72.6712V65.3437C199.306 63.9464 199.861 62.6064 200.85 61.6184C201.838 60.6304 203.178 60.0753 204.575 60.0753H213.254C214.652 60.0753 215.992 59.5202 216.98 58.5322C217.968 57.5442 218.523 56.2041 218.523 54.8068V47.4794C218.523 46.0821 217.968 44.7421 216.98 43.754C215.992 42.766 214.652 42.2109 213.254 42.2109H57.9147C56.5174 42.2109 55.1774 42.766 54.1893 43.754C53.2013 44.7421 52.6462 46.0821 52.6462 47.4794V54.8068C52.6462 56.2041 53.2013 57.5442 54.1893 58.5322C55.1774 59.5202 56.5174 60.0753 57.9147 60.0753C59.312 60.0753 60.652 60.6304 61.64 61.6184C62.6281 62.6064 63.1831 63.9464 63.1831 65.3437V72.6712C63.1831 74.0685 62.6281 75.4085 61.64 76.3965C60.652 77.3846 59.312 77.9396 57.9147 77.9396H33.495C32.0977 77.9396 30.7577 78.4947 29.7697 79.4827C28.7816 80.4707 28.2266 81.8108 28.2266 83.2081V90.5355C28.2266 91.9328 28.7816 93.2728 29.7697 94.2609C30.7577 95.2489 32.0977 95.804 33.495 95.804H57.6739C58.3658 95.804 59.0508 95.9402 59.69 96.205C60.3292 96.4697 60.91 96.8578 61.3993 97.347C61.8885 97.8363 62.2766 98.4171 62.5413 99.0563C62.8061 99.6955 62.9424 100.381 62.9424 101.072V108.4C63.0714 115.105 48.4451 113.668 45.5354 113.668H45.5161C44.1189 113.668 42.7788 114.223 41.7908 115.211C40.8028 116.199 40.2477 117.54 40.2477 118.937V126.264C40.2477 127.661 40.8028 129.002 41.7908 129.99C42.7788 130.978 44.1189 131.533 45.5161 131.533H58.8112C60.2085 131.533 61.5485 132.088 62.5365 133.076C63.5246 134.064 64.0796 135.404 64.0796 136.801V144.129C64.0796 145.526 63.5246 146.866 62.5365 147.854C61.5485 148.842 60.2085 149.397 58.8112 149.397H43.8754C42.4782 149.397 41.1381 149.952 40.1501 150.94C39.1621 151.928 38.607 153.268 38.607 154.665V161.993C38.607 163.39 39.1621 164.73 40.1501 165.718C41.1381 166.706 42.4782 167.261 43.8754 167.261H212.037C213.434 167.261 214.774 166.706 215.762 165.718C216.75 164.73 217.305 163.39 217.305 161.993V154.665C217.305 153.268 216.75 151.928 215.762 150.94C214.774 149.952 213.434 149.397 212.037 149.397H203.422C202.025 149.397 200.685 148.842 199.697 147.854C198.709 146.866 198.154 145.526 198.154 144.129V136.801C198.154 135.404 198.709 134.064 199.697 133.076C200.685 132.088 202.025 131.533 203.422 131.533H218.24C219.637 131.533 220.977 130.978 221.965 129.99C222.953 129.002 223.508 127.661 223.508 126.264V118.937C223.508 117.54 222.953 116.199 221.965 115.211C220.977 114.223 219.637 113.668 218.24 113.668H210.926C209.529 113.668 208.189 113.113 207.201 112.125C206.213 111.137 205.658 109.797 205.658 108.4V101.072C205.658 100.381 205.794 99.6955 206.059 99.0563C206.323 98.4171 206.711 97.8363 207.201 97.3471C207.69 96.8578 208.271 96.4698 208.91 96.205C209.549 95.9402 210.234 95.804 210.926 95.804H227.217C228.614 95.804 229.954 95.2489 230.942 94.2609C231.93 93.2728 232.485 91.9328 232.485 90.5355Z" fill="#FFDDBE"/>
<path d="M137.843 79.1058C148.336 79.1058 156.843 70.5991 156.843 60.1056C156.843 49.6121 148.336 41.1055 137.843 41.1055C127.349 41.1055 118.843 49.6121 118.843 60.1056C118.843 70.5991 127.349 79.1058 137.843 79.1058Z" fill="#FF8D28"/>
<path d="M131.117 56.1491C131.116 56.1256 131.116 56.1021 131.116 56.0786C131.116 54.7522 131.508 53.4555 132.243 52.3514C132.978 51.2473 134.023 50.385 135.246 49.873C136.47 49.361 137.817 49.2221 139.12 49.4738C140.422 49.7255 141.621 50.3565 142.565 51.2875C143.51 52.2185 144.158 53.408 144.429 54.7064C144.699 56.0049 144.58 57.3543 144.086 58.5851C143.592 59.8159 142.745 60.8732 141.651 61.624C140.558 62.3748 139.267 62.7856 137.941 62.8049V68.9132" stroke="#F9BD00" stroke-width="1.61846" stroke-linecap="round" stroke-linejoin="round"/>
<path d="M169.804 47.3164H182.874" stroke="#FF8D28" stroke-width="1.21385" stroke-miterlimit="10" stroke-linecap="round"/>
<path d="M169.804 51.082H182.874" stroke="#FF8D28" stroke-width="1.21385" stroke-miterlimit="10" stroke-linecap="round"/>
<path d="M169.804 54.8516H182.874" stroke="#FF8D28" stroke-width="1.21385" stroke-miterlimit="10" stroke-linecap="round"/>
<path d="M48.2119 118.859H61.2821" stroke="#FF8D28" stroke-width="1.21385" stroke-miterlimit="10" stroke-linecap="round"/>
<path d="M48.2119 122.629H61.2821" stroke="#FF8D28" stroke-width="1.21385" stroke-miterlimit="10" stroke-linecap="round"/>
<path d="M48.2119 126.395H61.2821" stroke="#FF8D28" stroke-width="1.21385" stroke-miterlimit="10" stroke-linecap="round"/>
<path d="M194.879 145.727H207.949" stroke="#FF8D28" stroke-width="1.21385" stroke-miterlimit="10" stroke-linecap="round"/>
<path d="M194.879 149.492H207.949" stroke="#FF8D28" stroke-width="1.21385" stroke-miterlimit="10" stroke-linecap="round"/>
<path d="M194.879 153.258H207.949" stroke="#FF8D28" stroke-width="1.21385" stroke-miterlimit="10" stroke-linecap="round"/>
<path d="M210.634 127.173C213.719 127.173 216.22 124.672 216.22 121.587C216.22 118.501 213.719 116 210.634 116C207.548 116 205.047 118.501 205.047 121.587C205.047 124.672 207.548 127.173 210.634 127.173Z" fill="#FF8D28"/>
<path d="M195.891 128.512C197.491 128.512 198.788 127.215 198.788 125.616C198.788 124.016 197.491 122.719 195.891 122.719C194.291 122.719 192.994 124.016 192.994 125.616C192.994 127.215 194.291 128.512 195.891 128.512Z" fill="#FF8D28"/>
<path d="M203.247 112.054C205.532 112.054 207.385 110.201 207.385 107.916C207.385 105.63 205.532 103.777 203.247 103.777C200.961 103.777 199.108 105.63 199.108 107.916C199.108 110.201 200.961 112.054 203.247 112.054Z" fill="#FF8D28"/>
<path d="M83.5093 164.314C87.1804 164.314 90.1563 161.338 90.1563 157.667C90.1563 153.995 87.1804 151.02 83.5093 151.02C79.8383 151.02 76.8623 153.995 76.8623 157.667C76.8623 161.338 79.8383 164.314 83.5093 164.314Z" fill="#FF8D28"/>
<path d="M70.808 156.397C72.7202 156.397 74.2703 154.847 74.2703 152.935C74.2703 151.023 72.7202 149.473 70.808 149.473C68.8958 149.473 67.3457 151.023 67.3457 152.935C67.3457 154.847 68.8958 156.397 70.808 156.397Z" fill="#FF8D28"/>
<path d="M73.9884 143.162C75.0914 143.162 75.9855 142.268 75.9855 141.165C75.9855 140.062 75.0914 139.168 73.9884 139.168C72.8854 139.168 71.9912 140.062 71.9912 141.165C71.9912 142.268 72.8854 143.162 73.9884 143.162Z" fill="#FF8D28"/>
<path d="M85.0435 147.364C87.6877 147.364 89.8312 145.221 89.8312 142.577C89.8312 139.933 87.6877 137.789 85.0435 137.789C82.3994 137.789 80.2559 139.933 80.2559 142.577C80.2559 145.221 82.3994 147.364 85.0435 147.364Z" fill="#FF8D28"/>
<path d="M88.3775 64.5323C92.0485 64.5323 95.0245 61.5563 95.0245 57.8853C95.0245 54.2142 92.0485 51.2383 88.3775 51.2383C84.7064 51.2383 81.7305 54.2142 81.7305 57.8853C81.7305 61.5563 84.7064 64.5323 88.3775 64.5323Z" fill="#FF8D28"/>
<path d="M88.6469 47.7918C90.5591 47.7918 92.1092 46.2417 92.1092 44.3295C92.1092 42.4173 90.5591 40.8672 88.6469 40.8672C86.7347 40.8672 85.1846 42.4173 85.1846 44.3295C85.1846 46.2417 86.7347 47.7918 88.6469 47.7918Z" fill="#FF8D28"/>
<path d="M111.709 49.3526C113.364 49.3526 114.705 48.011 114.705 46.356C114.705 44.701 113.364 43.3594 111.709 43.3594C110.054 43.3594 108.712 44.701 108.712 46.356C108.712 48.011 110.054 49.3526 111.709 49.3526Z" fill="#FF8D28"/>
<path d="M100.806 45.4396C101.909 45.4396 102.803 44.5455 102.803 43.4425C102.803 42.3395 101.909 41.4453 100.806 41.4453C99.7027 41.4453 98.8086 42.3395 98.8086 43.4425C98.8086 44.5455 99.7027 45.4396 100.806 45.4396Z" fill="#FF8D28"/>
<path d="M103.127 59.13C105.772 59.13 107.915 56.9865 107.915 54.3423C107.915 51.6982 105.772 49.5547 103.127 49.5547C100.483 49.5547 98.3398 51.6982 98.3398 54.3423C98.3398 56.9865 100.483 59.13 103.127 59.13Z" fill="#FF8D28"/>
<path d="M194.562 94.3727H81.9834L78.3125 85.0664H194.562C194.707 85.0664 194.85 85.0949 194.984 85.1502C195.117 85.2056 195.239 85.2867 195.341 85.389C195.443 85.4912 195.524 85.6126 195.58 85.7462C195.635 85.8798 195.663 86.0231 195.663 86.1677V93.2714C195.663 93.416 195.635 93.5592 195.58 93.6929C195.524 93.8265 195.443 93.9479 195.341 94.0501C195.239 94.1524 195.117 94.2335 194.984 94.2889C194.85 94.3442 194.707 94.3727 194.562 94.3727Z" fill="#D62537"/>
<path d="M178.161 143.271H101.609C101.236 143.271 100.871 143.157 100.564 142.945C100.257 142.732 100.022 142.43 99.891 142.081L81.9834 94.375H190.642L179.952 141.839C179.86 142.246 179.633 142.609 179.307 142.869C178.982 143.129 178.578 143.271 178.161 143.271Z" fill="#F9BD00"/>
<path d="M185.137 118.822C177.306 119.325 169.474 119.588 161.643 119.766C157.727 119.878 153.812 119.903 149.896 119.969L138.149 120.036C130.318 120.043 122.486 119.954 114.655 119.77C106.824 119.592 98.9925 119.328 91.1611 118.822C98.9925 118.317 106.824 118.053 114.655 117.875C122.486 117.699 130.318 117.611 138.149 117.609L149.896 117.676C153.812 117.742 157.727 117.767 161.643 117.879C169.474 118.057 177.306 118.32 185.137 118.822Z" fill="#FF8D28"/>
<path d="M169.819 94.375C169.372 98.642 168.691 102.856 167.938 107.054C167.175 111.25 166.325 115.425 165.385 119.581C164.451 123.738 163.431 127.876 162.324 131.994C161.766 134.052 161.187 136.106 160.57 138.15C160.251 139.17 159.947 140.194 159.615 141.211L159.359 141.984C159.259 142.267 159.095 142.524 158.881 142.736C158.68 142.935 158.437 143.086 158.17 143.179C157.903 143.271 157.619 143.303 157.338 143.271C157.592 143.241 157.836 143.157 158.054 143.023C158.272 142.89 158.458 142.711 158.6 142.499C158.733 142.304 158.821 142.081 158.856 141.847L158.958 141.063C159.095 140.002 159.259 138.947 159.407 137.889C159.726 135.777 160.084 133.674 160.462 131.575C161.225 127.379 162.076 123.204 163.018 119.048C163.955 114.892 164.977 110.754 166.082 106.636C167.202 102.521 168.392 98.4213 169.819 94.375Z" fill="#FF8D28"/>
<path d="M126.073 143.271C125.781 143.303 125.485 143.266 125.21 143.164C124.934 143.061 124.686 142.896 124.485 142.681C124.288 142.455 124.13 142.198 124.018 141.92L123.655 141.168C123.172 140.166 122.716 139.154 122.245 138.147C121.323 136.127 120.439 134.092 119.574 132.05C117.849 127.964 116.21 123.845 114.656 119.695C113.096 115.547 111.62 111.368 110.226 107.157C108.844 102.943 107.531 98.7016 106.447 94.375C108.478 98.3463 110.28 102.403 112.013 106.486C113.737 110.573 115.375 114.692 116.928 118.842C118.484 122.992 119.96 127.171 121.355 131.381C122.046 133.489 122.719 135.603 123.355 137.731C123.663 138.799 123.986 139.861 124.281 140.933L124.503 141.738C124.553 141.99 124.644 142.233 124.773 142.456C124.914 142.681 125.105 142.871 125.33 143.012C125.555 143.153 125.809 143.242 126.073 143.271Z" fill="#FF8D28"/>
<path d="M120.618 180.781C124.806 180.781 128.202 177.386 128.202 173.197C128.202 169.009 124.806 165.613 120.618 165.613C116.43 165.613 113.034 169.009 113.034 173.197C113.034 177.386 116.43 180.781 120.618 180.781Z" fill="#D62537"/>
<path d="M120.618 176.7C122.552 176.7 124.119 175.133 124.119 173.199C124.119 171.266 122.552 169.699 120.618 169.699C118.685 169.699 117.118 171.266 117.118 173.199C117.118 175.133 118.685 176.7 120.618 176.7Z" fill="#FFDDBE"/>
<path d="M164.364 180.781C168.553 180.781 171.948 177.386 171.948 173.197C171.948 169.009 168.553 165.613 164.364 165.613C160.176 165.613 156.78 169.009 156.78 173.197C156.78 177.386 160.176 180.781 164.364 180.781Z" fill="#D62537"/>
<path d="M164.364 176.7C166.298 176.7 167.865 175.133 167.865 173.199C167.865 171.266 166.298 169.699 164.364 169.699C162.431 169.699 160.864 171.266 160.864 173.199C160.864 175.133 162.431 176.7 164.364 176.7Z" fill="#FFDDBE"/>
<path d="M138.821 94.375C139.565 98.4198 140.068 102.479 140.499 106.543C140.919 110.607 141.249 114.676 141.489 118.751C141.733 122.826 141.89 126.905 141.959 130.99C142.014 135.076 141.996 139.166 141.734 143.271C140.987 139.227 140.483 135.167 140.053 131.104C139.633 127.04 139.304 122.97 139.066 118.895C138.825 114.821 138.669 110.741 138.6 106.656C138.545 102.57 138.562 98.4795 138.821 94.375Z" fill="#FF8D28"/>
<path d="M177.196 161.768H108.592C108.346 161.768 108.107 161.693 107.904 161.554C107.702 161.415 107.547 161.218 107.459 160.988L67.7262 57.416H46.6806C46.3587 57.416 46.05 57.2881 45.8223 57.0604C45.5947 56.8328 45.4668 56.5241 45.4668 56.2021C45.4668 55.8802 45.5947 55.5714 45.8223 55.3438C46.05 55.1162 46.3587 54.9883 46.6806 54.9883H68.5606C68.8061 54.9883 69.0459 55.0628 69.2483 55.2019C69.4506 55.341 69.606 55.5382 69.6939 55.7675L109.426 159.34H177.196C177.518 159.34 177.827 159.468 178.054 159.695C178.282 159.923 178.41 160.232 178.41 160.554C178.41 160.876 178.282 161.184 178.054 161.412C177.827 161.64 177.518 161.768 177.196 161.768Z" fill="#D62537"/>
<path d="M57.236 52.6992H42.8317C42.3848 52.6992 42.0225 53.0615 42.0225 53.5084V59.3187C42.0225 59.7657 42.3848 60.128 42.8317 60.128H57.236C57.6829 60.128 58.0452 59.7657 58.0452 59.3187V53.5084C58.0452 53.0615 57.6829 52.6992 57.236 52.6992Z" fill="#D62537"/>
<path d="M137.843 73.7631C138.447 73.7631 138.936 73.2739 138.936 72.6706C138.936 72.0672 138.447 71.5781 137.843 71.5781C137.24 71.5781 136.751 72.0672 136.751 72.6706C136.751 73.2739 137.24 73.7631 137.843 73.7631Z" fill="#F9BD00"/>
</svg>
