<svg width="187" height="170" viewBox="0 0 187 170" fill="none" xmlns="http://www.w3.org/2000/svg">
<path d="M125.835 60.9753C112.578 60.9753 99.0844 60.4368 86.4615 56.9207C74.0762 53.4839 62.7045 46.8161 52.5682 39.103C45.9321 34.0823 39.8978 30.0753 31.282 30.6772C22.8531 31.1333 14.7927 34.2808 8.28519 39.6573C-2.67471 49.2551 -1.02756 67.0412 3.35957 79.4899C9.94817 98.2896 29.9991 111.388 47.0408 119.861C66.7274 129.696 88.3621 135.414 110.044 138.692C129.05 141.591 153.472 143.681 169.944 131.28C185.069 119.861 189.218 93.8233 185.512 76.2431C184.613 71.0496 181.848 66.3635 177.736 63.0659C167.109 55.2894 151.255 60.4843 139.313 60.7377C134.878 60.8327 130.364 60.9436 125.835 60.9753Z" fill="#FFDDBE"/>
<path d="M94.03 169.512C126.141 169.512 152.171 167.888 152.171 165.885C152.171 163.882 126.141 162.258 94.03 162.258C61.9194 162.258 35.8887 163.882 35.8887 165.885C35.8887 167.888 61.9194 169.512 94.03 169.512Z" fill="#606060"/>
<path d="M11.9902 26.0468L32.5796 24.3046C35.1471 24.0798 37.7139 24.7437 39.8503 26.1853C41.9867 27.6269 43.5631 29.7586 44.3156 32.2236L64.0497 98.2681L60.1853 105.189C59.1927 106.973 58.7027 108.992 58.7675 111.032C58.8323 113.072 59.4495 115.056 60.5534 116.772C61.6572 118.489 63.2062 119.874 65.0353 120.78C66.8643 121.685 68.9048 122.077 70.9393 121.914L149.971 115.199" stroke="#FF8D28" stroke-linecap="round" stroke-linejoin="round"/>
<path d="M47.2637 42.2558L139.124 34.4635C140.029 34.386 140.94 34.5132 141.789 34.8356C142.638 35.1581 143.403 35.6676 144.029 36.3264C144.654 36.9851 145.123 37.7762 145.401 38.6409C145.678 39.5056 145.758 40.4217 145.633 41.3213L139.409 86.2537C139.22 87.6018 138.583 88.8472 137.601 89.7894C136.618 90.7317 135.347 91.3161 133.993 91.4486L64.052 98.2748L47.2637 42.2558Z" fill="#FF8D28" stroke="#FAFAFA" stroke-linecap="round" stroke-linejoin="round"/>
<path d="M79.7302 137.056C83.8501 137.056 87.1899 133.716 87.1899 129.596C87.1899 125.477 83.8501 122.137 79.7302 122.137C75.6103 122.137 72.2705 125.477 72.2705 129.596C72.2705 133.716 75.6103 137.056 79.7302 137.056Z" fill="white" stroke="#FF8D28" stroke-linecap="round" stroke-linejoin="round"/>
<path d="M131.679 132.658C135.799 132.658 139.139 129.318 139.139 125.198C139.139 121.078 135.799 117.738 131.679 117.738C127.56 117.738 124.22 121.078 124.22 125.198C124.22 129.318 127.56 132.658 131.679 132.658Z" fill="white" stroke="#FF8D28" stroke-linecap="round" stroke-linejoin="round"/>
<path d="M28.2937 22.5242L8.8827 24.1712C7.20056 24.314 5.95262 25.7933 6.09535 27.4755C6.23808 29.1576 7.71744 30.4056 9.39958 30.2628L28.8106 28.6158C30.4927 28.473 31.7406 26.9937 31.5979 25.3116C31.4552 23.6294 29.9758 22.3815 28.2937 22.5242Z" fill="#FF8D28"/>
<path d="M85.9395 76.9526C86.3182 74.0621 87.6738 71.3879 89.7812 69.3736C91.8887 67.3593 94.6214 66.126 97.5261 65.8783C100.431 65.6305 103.333 66.3832 105.751 68.0115C108.169 69.6397 109.958 72.0457 110.821 74.8303" stroke="#FAFAFA" stroke-linecap="round" stroke-linejoin="round"/>
<path d="M111.025 59.8641C112.004 59.8641 112.799 59.0699 112.799 58.0903C112.799 57.1106 112.004 56.3164 111.025 56.3164C110.045 56.3164 109.251 57.1106 109.251 58.0903C109.251 59.0699 110.045 59.8641 111.025 59.8641Z" fill="#FAFAFA"/>
<path d="M82.9125 62.2391C83.8922 62.2391 84.6864 61.4449 84.6864 60.4653C84.6864 59.4856 83.8922 58.6914 82.9125 58.6914C81.9328 58.6914 81.1387 59.4856 81.1387 60.4653C81.1387 61.4449 81.9328 62.2391 82.9125 62.2391Z" fill="#FAFAFA"/>
<path d="M32.9443 127.395V134.221" stroke="#FF8D28" stroke-linecap="round" stroke-linejoin="round"/>
<path d="M29.5381 130.805H36.3484" stroke="#FF8D28" stroke-linecap="round" stroke-linejoin="round"/>
<path d="M141.769 0.5V7.31034" stroke="#FF8D28" stroke-linecap="round" stroke-linejoin="round"/>
<path d="M138.363 3.91016H145.174" stroke="#FF8D28" stroke-linecap="round" stroke-linejoin="round"/>
<path d="M61.1367 20.8555V27.6658" stroke="#FF8D28" stroke-linecap="round" stroke-linejoin="round"/>
<path d="M57.7158 24.2578H64.542" stroke="#FF8D28" stroke-linecap="round" stroke-linejoin="round"/>
<path d="M158.761 45.895C159.653 45.895 160.376 45.1717 160.376 44.2795C160.376 43.3873 159.653 42.6641 158.761 42.6641C157.869 42.6641 157.146 43.3873 157.146 44.2795C157.146 45.1717 157.869 45.895 158.761 45.895Z" fill="white" stroke="#FF8D28" stroke-linecap="round" stroke-linejoin="round"/>
<path d="M98.3867 28.7656C98.9677 28.7656 99.4393 29.2365 99.4395 29.8174C99.4395 30.3985 98.9678 30.8701 98.3867 30.8701C97.8058 30.8699 97.335 30.3983 97.335 29.8174C97.3352 29.2366 97.8059 28.7658 98.3867 28.7656Z" fill="#CFCFCF" stroke="#FF8D28"/>
<path d="M108.808 144.01C109.665 144.01 110.36 143.316 110.36 142.458C110.36 141.601 109.665 140.906 108.808 140.906C107.951 140.906 107.256 141.601 107.256 142.458C107.256 143.316 107.951 144.01 108.808 144.01Z" fill="#CFCFCF"/>
</svg>
